<?xml version="1.0" encoding="utf-8"?>
<!-- Generator: Adobe Illustrator 28.0.0, SVG Export Plug-In . SVG Version: 6.00 Build 0)  -->
<svg version="1.1" id="Layer_1" xmlns="http://www.w3.org/2000/svg" xmlns:xlink="http://www.w3.org/1999/xlink" x="0px" y="0px"
	 viewBox="0 0 100 100" style="enable-background:new 0 0 100 100;" xml:space="preserve">
<style type="text/css">
	.st0{fill:none;}
	.st1{fill:#FFFFFF;}
</style>
<g>
	<path class="st0" d="M98,98c-32,0-64,0-96,0C2,66,2,34,2,2c32,0,64,0,96,0C98,34,98,66,98,98z M49.5,80c10.7,0,21.3,0,32,0
		c7.2,0,10.5-3.2,10.5-10.2c0-15.2,0-30.3,0-45.5c0-6.9-3.3-10.2-10-10.2C60.7,14,39.4,14,18.1,14c-6.8,0-10,3.4-10,10.2
		c0,15.1,0,30.3,0,45.5c0,7,3.3,10.2,10.5,10.3C28.8,80,39.2,80,49.5,80z"/>
	<path class="st1" d="M49.5,80c-10.3,0-20.6,0-31,0C11.3,79.9,8,76.8,8,69.7c0-15.2,0-30.3,0-45.4c0-6.9,3.3-10.2,10-10.2
		C39.4,14,60.7,14,82,14c6.7,0,10,3.4,10,10.2c0,15.1,0,30.3,0,45.4c0,7-3.3,10.2-10.5,10.2C70.8,80,60.1,80,49.5,80z M87.8,23.5
		c-11.3,7-21.9,13.4-33.5,19.6c-3.1,2.4-5.7,2.1-9.3-0.1c-9.6-6.5-23.4-13.1-33.7-20.3c0,15.5-0.2,32.5,0.2,47.1
		c0.4,4.6,4,6.8,7.7,6.5c20.6,0.2,40.8,0,61.4,0c6.1-0.3,7.7-1.5,7.7-7.6C88.3,54.6,87.8,38.8,87.8,23.5z M17.9,17.6
		c-2.1,0.2-3.6,3.3-1.6,4.9c9.6,6.7,19.9,11.9,30.5,18.6c2.4,1.7,4.1,1.7,6.5,0c10-5.4,21.9-12.3,30.6-18.3c0.9-0.6,2.1-4.5-1.4-5.2
		C60.4,16.5,37.3,17.5,17.9,17.6z"/>
	<path class="st0" d="M86,25.9c0,15.2,0,29.4,0,43.5c0,3.4-1.7,4.7-5,4.7c-20.7,0-41.3,0.1-61.9-0.2c-1.7,0-4.8-2.1-4.9-3.3
		C13.9,56,14,41.4,14,25.9C24.3,33,33.8,39.6,43.4,46.1c8.1,5.5,4.9,5.7,13.4-0.1C66.3,39.6,75.7,33,86,25.9z"/>
	<path class="st0" d="M18.3,20.1c21.1,0,42.3,0,64.2,0c-1.3,1.2-2.1,2.1-3.1,2.8c-8.7,6.1-17.6,12.1-26.2,18.2
		c-2.4,1.7-4.1,1.7-6.5,0C37.2,34.2,27.5,27.6,17.9,21C18,20.6,18.1,20.4,18.3,20.1z"/>
</g>
</svg>
